<svg width="40" height="40" viewBox="0 0 40 40" fill="none" xmlns="http://www.w3.org/2000/svg">
<circle cx="20" cy="20" r="20" fill="white"/>
<path d="M18 30C22.4183 30 26 26.4183 26 22C26 17.5817 22.4183 14 18 14C13.5817 14 10 17.5817 10 22C10 26.4183 13.5817 30 18 30Z" fill="#3DDAB4"/>
<path d="M23.792 23.4635C27.5058 23.4635 30.5165 20.4528 30.5165 16.739C30.5165 13.0252 27.5058 10.0145 23.792 10.0145C20.0782 10.0145 17.0675 13.0252 17.0675 16.739C17.0675 20.4528 20.0782 23.4635 23.792 23.4635Z" fill="#F5BC00"/>
<path d="M10.035 30H17.9545L13.461 25.7745L10.035 30Z" fill="#3DDAB4"/>
<path d="M18 14C17.8805 14 17.7645 14.0125 17.646 14.018C17.2765 14.8505 17.0675 15.77 17.0675 16.7395C17.0675 20.4535 20.078 23.464 23.792 23.464C24.534 23.464 25.2455 23.339 25.913 23.1175C25.9645 22.751 26 22.38 26 22C26 17.5815 22.4185 14 18 14Z" fill="#00B569"/>
<path d="M30.4875 10.0145H23.8305L27.6075 13.5665L30.4875 10.0145Z" fill="#F5BC00"/>
</svg>
