<svg width="40" height="40" viewBox="0 0 40 40" fill="none" xmlns="http://www.w3.org/2000/svg">
<circle cx="20" cy="20" r="20" fill="#26252D"/>
<path d="M26 28H26.5C27.086 27.414 27.414 27.086 28 26.5V24H26V28Z" fill="#F5BC00"/>
<path d="M26 16H26.5C27.086 15.414 27.414 15.086 28 14.5V12H26V16Z" fill="#F5BC00"/>
<path d="M26 22H26.5C27.086 21.414 27.414 21.086 28 20.5V18H26V22Z" fill="#F5BC00"/>
<path d="M26.5 10.5H12V29.5H26.5V10.5Z" fill="#6C19FF"/>
<path d="M26.5 12H25.5415V16H26.5V12Z" fill="#2100C4"/>
<path d="M26.5 18H25.5415V22H26.5V18Z" fill="#2100C4"/>
<path d="M26.5 24H25.5415V28H26.5V24Z" fill="#2100C4"/>
<path d="M21.0665 20.0015L16.933 19.9985C16.657 19.9985 16.4335 19.7745 16.4335 19.498C16.4335 19.222 16.6575 18.9985 16.9335 18.9985C16.9335 18.9985 16.9335 18.9985 16.934 18.9985L21.067 19.0015C21.343 19.0015 21.5665 19.2255 21.5665 19.502C21.5665 19.778 21.3425 20.0015 21.0665 20.0015Z" fill="#7DEBF5"/>
<path d="M20.5115 21H17.489C16.421 21 15.512 21.8065 15.3435 22.902C16.256 23.883 17.5545 24.5 19 24.5C20.4455 24.5 21.744 23.883 22.657 22.902C22.488 21.8065 21.579 21 20.5115 21Z" fill="#3DD9EB"/>
<path d="M19 21.4495C17.8805 21.4495 16.938 20.613 16.8045 19.5015L16.696 18.597C16.53 17.2155 17.6085 16 19 16C20.3915 16 21.47 17.2155 21.304 18.597L21.1955 19.5015C21.062 20.613 20.1195 21.4495 19 21.4495Z" fill="#7DEBF5"/>
</svg>
